<svg height="800px" width="800px" version="1.1" id="Layer_1"
	 xmlns="http://www.w3.org/2000/svg" 
	 xmlns:xlink="http://www.w3.org/1999/xlink" 
	 viewBox="0 0 511.999 511.999" xml:space="preserve">
<path style="fill:#09203f;" d="M138.195,230.995c-0.512-31.401,4.995-137.739,97.373-187.714l14.719-7.962
	c1.829-3.308,2.861-5.158,2.861-5.158c-106.75,1.974-200.175,75.427-227.197,178.626l-11.803,45.07l36.734-28.655
	c11.736-9.155,26.403-13.015,41.3-10.87c13.841,1.993,26.321,9.303,35.137,20.585l11.172,14.293L138.195,230.995z"/>
<path style="fill:#09203f;" d="M497.752,268.093c-6.317,0-12.084-4.236-13.76-10.631l-11.801-45.07
	c-7.804-29.807-21.46-57.251-40.586-81.568c-4.861-6.179-3.79-15.128,2.388-19.987c6.18-4.861,15.128-3.792,19.987,2.388
	c21.557,27.407,36.949,58.345,45.75,91.955l11.801,45.07c1.991,7.605-2.559,15.384-10.164,17.375
	C500.159,267.94,498.946,268.093,497.752,268.093z"/>
<path style="fill:#09203f;" d="M256.172,31.819l21.009,11.37c92.377,49.994,97.884,156.297,97.37,187.687l-0.541,33.112
	l-23.654-23.177c-9.289-9.102-21.876-14.323-34.532-14.323c-13.351,0-25.864,5.284-35.236,14.878l-24.416,24.999L256.172,31.819
	L256.172,31.819z"/>
<g>
	<path style="fill:#09203f;" d="M433.89,212.887c-0.834-8.095-8.22-13.791-16.189-12.645c-10.66,1.534-20.656,5.57-29.358,11.683
		c-2.316-39.154-14.812-110.034-71.302-158.555c15.966,4.662,31.448,11.075,46.063,19.171c6.604,3.659,15.125,1.914,19.247-4.412
		c4.553-6.989,2.176-16.243-4.987-20.232c-36.196-20.152-77.117-31.207-118.333-31.97c-1.039-0.021-2.054,0.1-3.047,0.296
		c-1.011-0.204-2.043-0.325-3.096-0.296C139.789,18.02,40.81,95.844,12.181,205.181l-11.679,44.6
		c-1.514,5.782,0.437,12.073,5.274,15.584c2.508,1.82,5.443,2.723,8.372,2.723c3.1,0,6.192-1.011,8.755-3.01l36.734-28.654
		c7.076-5.52,15.553-8.438,24.516-8.438c1.984,0,4.004,0.147,5.999,0.434c10.19,1.468,19.406,6.888,25.951,15.261l3.62,4.632
		c2.44,3.121,3.795,6.955,3.86,10.916l0.081,4.938c0.074,4.538,2.136,8.905,5.814,11.563c5.82,4.207,13.55,3.445,18.416-1.349
		l23.683-23.346c6.502-6.412,15.29-10.124,24.159-10.22c7.646-0.083,14.225-5.94,14.57-13.578
		c0.367-8.16-6.139-14.891-14.219-14.891c-16.033,0-31.878,6.427-43.67,17.643c-0.376-30.193,5.294-127.76,89.089-173.722v210.096
		c0,7.861,6.372,14.234,14.234,14.234c0.068,0,0.134-0.01,0.202-0.01c0.075,0.001,0.152,0.011,0.228,0.011
		c3.762,0,7.454-1.492,10.186-4.289l24.415-24.997c6.671-6.829,15.569-10.59,25.054-10.59c8.963,0,17.919,3.738,24.57,10.257
		l23.654,23.177c4.874,4.774,12.593,5.52,18.4,1.307c3.669-2.662,5.725-7.024,5.799-11.556l0.077-4.672
		c0.064-3.961,1.421-7.794,3.86-10.916l3.622-4.636c6.465-8.271,15.536-13.661,25.578-15.206
		C428.976,227.307,434.676,220.528,433.89,212.887z M94.211,200.242c-3.336-0.48-6.721-0.725-10.058-0.725
		c-15.367,0-29.899,5-42.025,14.46l-3.548,2.768l1.14-4.354c20.331-77.656,80.654-137.388,155.381-159.123
		c-56.63,48.477-69.189,119.422-71.524,158.661C114.873,205.815,104.874,201.778,94.211,200.242z M315.824,212.254
		c-17.216,0-33.345,6.807-45.418,19.166V56.267c83.69,45.905,89.449,143.286,89.09,173.608
		C347.651,218.672,331.806,212.254,315.824,212.254z"/>
	<path style="fill:#09203f;" d="M223.892,496.076c-27.077,0-49.106-22.029-49.106-49.106c0-7.861,6.372-14.234,14.234-14.234
		s14.234,6.372,14.234,14.234c0,11.38,9.259,20.639,20.639,20.639s20.639-9.259,20.639-20.639V327.407
		c0-7.861,6.372-14.234,14.234-14.234s14.234,6.372,14.234,14.234V446.97C272.998,474.047,250.969,496.076,223.892,496.076z"/>
</g>
</svg>